<svg id="_x33_0" enable-background="new 0 0 64 64" height="512" viewBox="0 0 64 64" width="512" xmlns="http://www.w3.org/2000/svg"><g><g><path d="m18 23v3h-8v-3c0-.55.45-1 1-1h1 4 1c.55 0 1 .45 1 1z" fill="#969faa"/><path d="m26 18h-8c-1.1 0-2 .9-2 2v2h-4v-2c0-1.1-.9-2-2-2h-3c-.55 0-1-.45-1-1v-2c0-.55.45-1 1-1h2.65 10.35 1.81c2.09 0 4.14.54 5.96 1.58l.54.31c.96.55 1.97.99 3.01 1.32v.01c.43.83.68 1.78.68 2.78v1c0 .55-.45 1-1 1h-2c-.55 0-1-.45-1-1v-1c0-1.1-.9-2-2-2z" fill="#e6e9ed"/><path d="m26 30h-24l3.41-3.41c.38-.38.89-.59 1.42-.59h3.17 8 3.17c.53 0 1.04.21 1.42.59z" fill="#5cd6b3"/><path d="m14.25 59.09c1.09 1.8 3.04 2.91 5.15 2.91h-13.52c-1.06 0-1.93-.82-2-1.88l-1.88-30.12h24l-.1 1.65v.01c-.54 1.11-.9 2.26-.9 3.34 0 .82.2 1.59.55 2.27v.01l-.58 9.14v.01c-.11.07-.21.16-.3.25-.41.41-.67.99-.67 1.63 0 .86.26 1.66.71 2.33l-.33 5.36h-2.63c-2.38 0-4.63-1.05-6.15-2.88-.6-.72-1.22-1.46-1.69-2.03-.58-.69-1.44-1.09-2.34-1.09-.87 0-1.57.7-1.57 1.56 0 .29.08.57.22.81z" fill="#5cd6b3"/><path d="m22 42c0 4.42-3.58 8-8 8s-8-3.58-8-8 3.58-8 8-8 8 3.58 8 8z" fill="#ffeaa7"/><path d="m18 41v2c0 .55-.45 1-1 1h-1v1c0 .55-.45 1-1 1h-2c-.55 0-1-.45-1-1v-1h-1c-.55 0-1-.45-1-1v-2c0-.55.45-1 1-1h1v-1c0-.55.45-1 1-1h2c.55 0 1 .45 1 1v1h1c.55 0 1 .45 1 1z" fill="#5cd6b3"/><path d="m35 35c0 2.76-2.24 5-5 5-1.94 0-3.62-1.1-4.45-2.72 0 0 0 0 0-.01-.35-.68-.55-1.45-.55-2.27 0-1.08.36-2.23.9-3.34v-.01c1.44-2.99 4.1-5.65 4.1-5.65s5 5 5 9z" fill="#69d6f4"/><g fill="#f5e0cd"><path d="m62 52v10h-42.6c-2.11 0-4.06-1.11-5.15-2.91l-4.03-6.72c-.14-.24-.22-.52-.22-.81 0-.86.7-1.56 1.57-1.56.9 0 1.76.4 2.34 1.09.47.57 1.09 1.31 1.69 2.03 1.52 1.83 3.77 2.88 6.15 2.88h2.63 6.03c.88 0 1.59-.71 1.59-1.59 0-.81-.6-1.48-1.4-1.58l-2.94-.37c-1.04-.13-1.96-.64-2.61-1.38l-.34-.44c-.45-.67-.71-1.47-.71-2.33 0-.64.26-1.22.67-1.63.09-.09.19-.18.3-.25.38-.27.83-.43 1.33-.43.46 0 .9.13 1.28.39l.66.43c1.14.77 2.5 1.18 3.88 1.18h3.77c1.37 0 2.69.46 3.75 1.31l2.26 1.81c.71.57 1.59.88 2.5.88z"/><path d="m20 14c-1.1 0-2-.9-2-2v-.01c0-.62.14-1.2.4-1.72h-.01l-8.07 3.59c-.21.09-.44.14-.67.14-.91 0-1.65-.74-1.65-1.65v-.42c0-.58.3-1.11.8-1.41l12.04-7.22c1.41-.85 3.03-1.3 4.68-1.3.98 0 1.95.16 2.88.47l7.52 2.5c2.04.68 4.18 1.03 6.33 1.03h19.75v11l-7-.78c-1.33-.15-2.67-.22-4.01-.22-2.65 0-5.3.29-7.88.87l-3.4.75c-1.14.25-2.3.38-3.46.38-1.68 0-3.35-.27-4.93-.79-1.04-.33-2.05-.77-3.01-1.32l-.54-.31c-1.82-1.04-3.87-1.58-5.96-1.58z"/></g></g><path d="m19 41c0-1.103-.897-2-2-2 0-1.103-.897-2-2-2h-2c-1.103 0-2 .897-2 2-1.103 0-2 .897-2 2v2c0 1.103.897 2 2 2 0 1.103.897 2 2 2h2c1.103 0 2-.897 2-2 1.103 0 2-.897 2-2zm-2 2h-2v2h-2v-2h-2v-2h2v-2h2v2l2 .003z"/><path d="m36.237 4.025-7.518-2.505c-2.774-.926-5.896-.581-8.396.921l-12.036 7.221c-.794.476-1.287 1.346-1.287 2.273v.416c0 .223.028.441.08.649h-.08c-1.103 0-2 .897-2 2v2c0 1.103.897 2 2 2h3c.552 0 1 .448 1 1v1c-1.103 0-2 .897-2 2v2h-2.172c-.801 0-1.555.312-2.121.879l-3.733 3.733 1.911 30.574c.097 1.579 1.413 2.814 2.994 2.814h57.121v-12h-18.598c-.679 0-1.344-.233-1.873-.657l-2.263-1.81c-1.236-.988-2.788-1.533-4.371-1.533h-3.776c-1.188 0-2.34-.349-3.329-1.008l-.656-.438c-.545-.363-1.179-.554-1.833-.554-.081 0-.158.018-.238.024l.328-5.242c1.006.761 2.253 1.218 3.609 1.218 3.309 0 6-2.691 6-6 0-4.364-5.077-9.491-5.293-9.707l-.707-.707-.707.707c-.114.114-1.589 1.609-2.953 3.633l-3.047-3.047c-.566-.567-1.32-.879-2.121-.879h-2.172v-2c0-1.103-.897-2-2-2v-1c0-.552.448-1 1-1h8c.552 0 1 .448 1 1v1c0 1.103.897 2 2 2h2c1.103 0 2-.897 2-2v-1c0-.461-.057-.919-.147-1.369 2.325.473 4.746.483 7.077-.035l3.395-.754c3.778-.841 7.721-1.054 11.565-.625l8.11.9v-13.117h-20.755c-2.046 0-4.067-.328-6.008-.975zm-9.213 43.194.656.438c1.319.878 2.853 1.343 4.438 1.343h3.776c1.131 0 2.239.389 3.122 1.096l2.263 1.81c.883.705 1.992 1.094 3.123 1.094h16.598v8h-41.604c-1.746 0-3.389-.93-4.287-2.428l-4.028-6.713c-.054-.088-.081-.189-.081-.294.001-.311.256-.565.568-.565.609 0 1.182.267 1.569.731l1.694 2.032c1.716 2.057 4.235 3.237 6.914 3.237l8.66-.001c1.43 0 2.593-1.163 2.593-2.592.002-1.305-.975-2.411-2.271-2.573l-2.945-.368c-1.587-.199-2.784-1.555-2.784-3.153 0-.724.584-1.312 1.303-1.312.258-.001.508.074.723.218zm-13.024 1.781c-3.859 0-7-3.141-7-7s3.141-7 7-7 7 3.141 7 7-3.141 7-7 7zm11.579 3.775c.588.344 1.244.586 1.956.675l2.945.368c.296.037.519.29.519.589 0 .326-.266.592-.593.592l-4.966.001zm-2.581-4.463c0 .931.258 1.806.695 2.567l-.257 4.121h-1.69c-2.084 0-4.043-.917-5.377-2.518l-1.295-1.553c4.457-.532 7.926-4.33 7.926-8.929 0-4.963-4.037-9-9-9s-9 4.037-9 9c0 3.387 1.882 6.34 4.653 7.876-.399.451-.651 1.036-.653 1.684-.002.469.125.93.366 1.33l4.027 6.712c.31.517.684.985 1.107 1.398h-8.621c-.527 0-.966-.411-.998-.938l-1.816-29.062h21.871l-.027.438c-.539 1.17-.909 2.392-.909 3.562 0 .876.193 1.707.532 2.458l-.531 8.484c-.616.602-1.003 1.441-1.003 2.37zm7.002-20.848c1.54 1.738 4 5.04 4 7.536 0 2.206-1.794 4-4 4s-4-1.794-4-4c0-2.496 2.46-5.798 4-7.536zm-8.121-.171 1.707 1.707h-19.172l1.707-1.707c.187-.187.444-.293.707-.293h14.344c.263 0 .52.106.707.293zm-10.879-2.293v-2h6v2zm20-5v1h-2v-1c0-1.654-1.346-3-3-3h-8c-1.654 0-3 1.346-3 3v1h-2v-1c0-1.654-1.346-3-3-3h-3v-2h14.813c1.911 0 3.799.501 5.458 1.449l.547.312c.882.504 1.81.922 2.765 1.257.272.625.417 1.289.417 1.982zm-13.816-7h-2.472l2.29-1.018c0 .006-.002.012-.002.018 0 .352.072.686.184 1zm43.816 2.883-5.89-.654c-4.061-.452-8.227-.229-12.22.66l-3.395.754c-3.613.805-7.479.216-10.687-1.617l-.547-.312c-1.96-1.12-4.19-1.713-6.449-1.713h-1.812c-.552 0-1-.448-1-1.007 0-1.651 1.346-2.994 3-2.994.557 0 1.105.089 1.632.266l3.204 1.066c1.328.443 2.711.668 4.111.668h2.053v-2h-2.053c-1.185 0-2.355-.19-3.479-.565l-3.203-1.066c-.73-.245-1.493-.369-2.266-.369-1.835 0-3.424 1.003-4.294 2.481l-7.791 3.463c-.412.187-.914-.143-.914-.593v-.416c0-.228.121-.44.315-.558l12.036-7.222c2.006-1.205 4.509-1.48 6.734-.739l7.519 2.506c2.146.716 4.38 1.078 6.641 1.078h18.755z"/></g></svg>